<?xml version="1.0" standalone="no"?>
<!DOCTYPE svg PUBLIC "-//W3C//DTD SVG 20010904//EN"
 "http://www.w3.org/TR/2001/REC-SVG-20010904/DTD/svg10.dtd">
<svg version="1.0" xmlns="http://www.w3.org/2000/svg"
 width="1600.000000pt" height="1600.000000pt" viewBox="0 0 1600.000000 1600.000000"
 preserveAspectRatio="xMidYMid meet">

<g transform="translate(0.000000,1600.000000) scale(0.100000,-0.100000)"
fill="#000000" stroke="none">
<path d="M3360 9244 c-109 -29 -199 -106 -248 -212 l-27 -57 0 -835 0 -835 33
-67 c143 -291 552 -284 691 11 l26 56 0 835 0 835 -26 56 c-50 106 -143 185
-254 214 -72 18 -123 18 -195 -1z"/>
<path d="M5490 8196 l0 -876 110 0 110 0 2 298 3 297 315 5 c295 5 319 7 379
28 179 64 313 212 356 393 19 83 19 229 0 304 -51 201 -208 356 -410 405 -34
9 -183 14 -457 17 l-408 5 0 -876z m862 631 c145 -71 230 -246 198 -404 -27
-129 -107 -230 -215 -274 -58 -23 -68 -24 -340 -24 l-280 0 -3 368 -2 368 292
-3 293 -3 57 -28z"/>
<path d="M7331 8658 c-252 -36 -462 -242 -526 -516 -23 -96 -16 -297 13 -388
99 -312 382 -506 677 -465 180 25 315 107 404 244 l41 62 0 -138 0 -137 105 0
105 0 0 655 0 655 -105 0 -104 0 -3 -136 -3 -135 -43 65 c-70 107 -167 177
-297 214 -87 25 -180 32 -264 20z m244 -213 c258 -68 407 -335 337 -606 -67
-256 -330 -405 -578 -328 -204 63 -325 235 -325 466 -1 318 272 544 566 468z"/>
<path d="M11140 8655 c-265 -54 -456 -238 -527 -505 -25 -97 -23 -263 6 -365
64 -230 229 -405 441 -469 243 -74 512 -3 675 177 50 55 125 182 125 211 0 8
-37 10 -123 8 l-123 -3 -24 -45 c-31 -60 -99 -118 -169 -146 -75 -29 -231 -32
-308 -5 -78 27 -163 95 -211 167 -41 61 -82 169 -82 216 l0 24 539 0 538 0 6
39 c7 59 -9 189 -33 261 -51 152 -153 280 -286 358 -140 81 -293 108 -444 77z
m225 -210 c161 -42 285 -161 310 -298 l7 -37 -426 0 c-490 0 -449 -11 -392
105 91 188 298 283 501 230z"/>
<path d="M12665 8664 c-155 -24 -290 -105 -367 -220 l-38 -56 0 121 0 121
-105 0 -105 0 0 -655 0 -655 110 0 110 0 0 389 c0 354 2 395 19 450 38 122
115 210 230 265 61 29 74 31 171 31 92 0 112 -3 160 -26 64 -30 122 -86 151
-145 43 -90 49 -156 49 -571 l0 -393 111 0 110 0 -3 443 c-4 413 -6 447 -25
518 -56 202 -164 319 -336 365 -56 15 -194 25 -242 18z"/>
<path d="M8270 8623 c0 -6 179 -445 431 -1060 44 -106 79 -199 79 -207 0 -38
-72 -181 -113 -224 -57 -61 -78 -67 -242 -72 l-150 -5 0 -90 0 -90 160 1 c222
1 297 25 391 123 92 98 117 154 607 1375 l92 229 3 -82 3 -81 358 -2 358 -3
-211 -272 c-404 -520 -471 -607 -508 -656 -35 -46 -38 -54 -38 -118 l0 -69
545 0 545 0 0 95 0 95 -391 2 -391 3 159 205 c88 113 257 331 376 485 l217
280 0 73 0 72 -623 0 -624 0 -184 -462 c-101 -255 -191 -487 -200 -518 -18
-58 -19 -57 -42 25 -11 37 -218 560 -374 943 -4 8 -37 12 -119 12 -63 0 -114
-3 -114 -7z"/>
</g>
</svg>
