<svg width="18" height="18" viewBox="0 0 18 18" fill="none" xmlns="http://www.w3.org/2000/svg">
<path d="M3.75 8.25H14.25C15.0779 8.25 15.75 8.92213 15.75 9.75V14.25C15.75 15.0779 15.0779 15.75 14.25 15.75H3.75C2.92213 15.75 2.25 15.0779 2.25 14.25V9.75C2.25 8.92213 2.92213 8.25 3.75 8.25V8.25" stroke="#1557B0" stroke-width="1.35" stroke-linecap="round" stroke-linejoin="round"/>
<path d="M7.5 3.75C7.5 4.57787 8.17213 5.25 9 5.25C9.82787 5.25 10.5 4.57787 10.5 3.75C10.5 2.92213 9.82787 2.25 9 2.25C8.17213 2.25 7.5 2.92213 7.5 3.75V3.75" stroke="#1557B0" stroke-width="1.35" stroke-linecap="round" stroke-linejoin="round"/>
<path d="M9 5.25V8.25M6 12H6.0075M12 12H12.0075" stroke="#1557B0" stroke-width="1.35" stroke-linecap="round" stroke-linejoin="round"/>
</svg>
